<svg xmlns="http://www.w3.org/2000/svg" viewBox="0 0 380.42 152.74"><defs><style>.cls-1{fill:#292929;}.cls-1,.cls-2,.cls-3,.cls-4,.cls-5,.cls-6,.cls-7{fill-rule:evenodd;}.cls-2{fill:#212121;}.cls-3{fill:#333;}.cls-4{fill:#fc9;}.cls-5{fill:#fff;}.cls-6{fill:#e6e6e6;}.cls-7{fill:#d9a97a;}</style></defs><g id="Layer_2" data-name="Layer 2"><g id="Camada_1" data-name="Camada 1"><path class="cls-1" d="M117.43,0c9.71,20.22,5.8,38.11-16.16,44.86C88.07,24.72,98.36,11.58,117.43,0Z"/><path class="cls-2" d="M148.87,31.85C138,51.48,121.2,58.69,103,44.72c8.73-22.44,25.42-21.69,45.91-12.87Z"/><path class="cls-3" d="M105.68,29.72c.08-.43,4.65-10.65,4.65-10.65l-2.46,11.19-2.19-.54Z"/><path class="cls-1" d="M115.76,41.09c.38-.19,11.33-2.53,11.33-2.53l-10.48,4.62-.85-2.09Z"/><path class="cls-1" d="M68,16.75a68,68,0,1,1-68,68,68,68,0,0,1,68-68Z"/><path class="cls-4" d="M68,47.14C40.53,47.14,18,50.3,13,74a46.52,46.52,0,0,0-.81,5.65c-.53,6.19-3.15,22.2,17.29,23S54.89,93.14,68,93.14s18,10.21,38.49,9.44,17.82-16.78,17.29-23A46.52,46.52,0,0,0,123,74C118,50.3,95.46,47.14,68,47.14Z"/><path class="cls-5" d="M115.6,71.79a20,20,0,0,1-37.58,0Z"/><path class="cls-5" d="M58,71.79a20,20,0,0,1-37.59,0Z"/><path class="cls-6" d="M115.6,71.79A20,20,0,0,1,96.81,84.92c-.49,0-1,0-1.47,0a20,20,0,0,0,17.32-13.08Z"/><path class="cls-6" d="M20.38,71.79a20,20,0,0,0,18.8,13.13c.49,0,1,0,1.47,0A20,20,0,0,1,23.33,71.79Z"/><path class="cls-7" d="M11.92,88.22C18,105.36,43,98.5,57.4,95.47c-7.11,3-13.84,7.64-27.9,7.11-13.57-.51-17-7.75-17.58-14.36Z"/><path class="cls-7" d="M124.07,88.22C118,105.36,93,98.5,78.59,95.47c7.11,3,13.84,7.64,27.9,7.11,13.57-.51,17-7.74,17.58-14.36Z"/><path d="M170.16,68.75a25.07,25.07,0,0,0,11.26,2.82c4.67,0,7.14-1.93,7.14-4.89,0-2.76-2.14-4.38-7.52-6.28-7.49-2.65-12.39-6.74-12.39-13.3,0-7.65,6.43-13.48,17-13.48a26.69,26.69,0,0,1,11.47,2.26L194.86,44a21.53,21.53,0,0,0-9.37-2.13c-4.42,0-6.53,2-6.53,4.34,0,2.85,2.48,4.11,8.31,6.31,7.95,3,11.63,7.1,11.63,13.45,0,7.5-5.74,13.93-18.1,13.93-5.09,0-10.19-1.38-12.69-2.79Z"/><path d="M244.2,87a165.8,165.8,0,0,1-17.76-6.28,10,10,0,0,0-3.1-.7c-10.16-.65-19.63-8.13-19.63-22.8,0-13.48,8.52-23.58,22-23.58,13.7,0,21.21,10.4,21.21,22.66,0,10.2-4.71,17.4-10.62,20v.28c3.43,1,7.3,1.83,10.82,2.54Zm-8-30.28c0-8.21-3.84-15-10.77-15s-10.95,6.76-10.94,15.2,4.07,15,10.86,15S236.15,65.46,236.15,56.67Z"/><path d="M263.68,34.32V60.15c0,7.76,3,11.72,8.14,11.72,5.33,0,8.26-3.76,8.26-11.72V34.32h10.15V59.53c0,13.85-7,20.44-18.76,20.44-11.33,0-18-6.29-18-20.56V34.32Z"/><path d="M307.44,67.7l-3.17,11.54h-10.5l13.71-44.92h13.29l14,44.92H323.81L320.35,67.7Zm11.41-7.56-2.8-9.55c-.77-2.65-1.57-6-2.25-8.64h-.15c-.65,2.64-1.33,6-2,8.66l-2.69,9.53Z"/><path d="M340.74,34.94a88.88,88.88,0,0,1,13.69-1c8.52,0,14.09,1.57,18.39,4.82,4.67,3.49,7.6,9,7.6,16.9,0,8.61-3.12,14.56-7.43,18.2-4.72,3.93-12,5.81-20.71,5.81A84.94,84.94,0,0,1,340.74,79Zm10.14,36.65a22.32,22.32,0,0,0,3.54.18c9.2.07,15.25-5,15.25-15.74,0-9.34-5.44-14.24-14.18-14.24a22,22,0,0,0-4.61.39Z"/><polygon class="cls-5" points="358.72 40.42 362.7 49.59 371.68 53.38 362.52 57.35 358.72 66.34 354.75 57.18 345.76 53.38 354.93 49.41 358.72 40.42 358.72 40.42"/><path class="cls-1" d="M358.39,50.55a2.5,2.5,0,1,1-2.5,2.5,2.5,2.5,0,0,1,2.5-2.5Z"/><path d="M168.78,88.64A51.35,51.35,0,0,1,177,88c5.53,0,9.51,1.31,12.12,3.76s4.24,5.89,4.24,10.71-1.53,8.88-4.3,11.65-7.46,4.31-13.26,4.31a63.64,63.64,0,0,1-7-.33Zm3.88,26.48a27.24,27.24,0,0,0,3.89.19c8.29,0,12.75-4.6,12.75-12.69,0-7.08-4-11.54-12.11-11.54a22.89,22.89,0,0,0-4.53.4Z"/><path d="M213.31,88.23v29.94h-3.89V88.23Z"/><path d="M253.92,116.82a27,27,0,0,1-9.21,1.65c-4.54,0-8.28-1.15-11.19-4-2.58-2.48-4.17-6.46-4.16-11.11,0-8.93,6.15-15.47,16.18-15.47A18.94,18.94,0,0,1,253,89.3l-1,3.16a15.17,15.17,0,0,0-6.61-1.28c-7.26,0-12,4.52-12,12S238,115.27,245,115.27a12.48,12.48,0,0,0,5.14-.8v-8.92h-6.06v-3.1h9.86Z"/><path d="M274.74,88.23v29.94h-3.88V88.23Z"/><path d="M298.25,91.5h-9.12V88.23H311.3V91.5h-9.17v26.67h-3.88Z"/><path d="M327.2,108.76l-3.1,9.41h-4l10.18-29.94h4.65l10.22,29.94H341l-3.21-9.41Zm9.83-3-3-8.62c-.65-2-1.1-3.74-1.55-5.46h-.1c-.43,1.75-.9,3.58-1.49,5.41L328,105.74Z"/><path d="M360.59,88.23h3.88V114.9h12.8v3.27H360.59Z"/></g></g></svg>